G04 ================== begin FILE IDENTIFICATION RECORD ==================*
G04 Layout Name:  C:/Users/abcd/Documents/GitHub/sophum_esc_v3/PCB/sophum_esc_v3.brd*
G04 Film Name:    BOTTOM*
G04 File Format:  Gerber RS274X*
G04 File Origin:  Cadence Allegro 16.6-2015-S066*
G04 Origin Date:  Thu May 07 12:56:15 2020*
G04 *
G04 Layer:  VIA CLASS/BOTTOM*
G04 Layer:  PIN/BOTTOM*
G04 Layer:  ETCH/BOTTOM*
G04 Layer:  BOARD GEOMETRY/OUTLINE*
G04 *
G04 Offset:    (0.00 0.00)*
G04 Mirror:    No*
G04 Mode:      Positive*
G04 Rotation:  0*
G04 FullContactRelief:  No*
G04 UndefLineWidth:     6.00*
G04 ================== end FILE IDENTIFICATION RECORD ====================*
%FSLAX55Y55*MOIN*%
%IR0*IPPOS*OFA0.00000B0.00000*MIA0B0*SFA1.00000B1.00000*%
%ADD10C,.02165*%
%ADD12C,.06299*%
%ADD11R,.06299X.06299*%
%ADD13C,.01*%
%ADD14C,.02*%
%ADD15C,.012*%
%ADD16C,.03*%
%ADD17C,.006*%
%ADD19C,.07302*%
%ADD20C,.07502*%
%ADD18C,.03368*%
%ADD21R,.07502X.07502*%
G75*
%LPD*%
G75*
G36*
G01X155000Y109022D02*
G02X156496Y107526I0J-1496D01*
G01Y2526D01*
G02X155000Y1030I-1496J0D01*
G01X0D01*
G02X-1496Y2526I0J1496D01*
G01Y107526D01*
G02X0Y109022I1496J0D01*
G01X155000D01*
G37*
%LPC*%
G75*
G36*
G01X47313Y72330D02*
G03X46596I-358J-178D01*
G02X44999Y74763I-1507J751D01*
G01X45076Y74767D01*
X47321Y77012D01*
X54461D01*
X71270Y93822D01*
Y95983D01*
G02X73674I1202J3553D01*
G01Y93402D01*
G03X74356Y93119I400J0D01*
G01X79108Y97871D01*
X79051Y97997D01*
G02X80933Y96115I3421J1539D01*
G01X80807Y96172D01*
X56515Y71880D01*
X50000D01*
G02X47313Y72330I-1180J1201D01*
G37*
G36*
G01X114379Y44672D02*
X87107D01*
G02Y47074I-1180J1201D01*
G01X113383D01*
X114167Y47858D01*
X115669D01*
G02X115724Y45404I1180J-1201D01*
G01X115667Y45456D01*
X115163D01*
X114379Y44672D01*
G37*
G36*
G01X66257Y24618D02*
X60557D01*
X54628Y30546D01*
X53670D01*
X31256Y52961D01*
Y71587D01*
X33232Y73564D01*
G02X33986Y74048I1486J-1486D01*
G01X34027Y74063D01*
X58721Y98757D01*
Y103287D01*
X66223D01*
Y95785D01*
X61693D01*
X37838Y71930D01*
X40088Y69680D01*
X63355D01*
X66152Y66883D01*
G02X63180Y63911I-1486J-1486D01*
G01X61615Y65476D01*
X38348D01*
X36141Y67683D01*
G03X35458Y67400I-283J-283D01*
G01Y62889D01*
G03X36141Y62606I400J0D01*
G01X37749Y64214D01*
X40393D01*
G02X43257Y63008I1180J-1201D01*
G01Y62808D01*
X77581D01*
G02Y60404I1180J-1202D01*
G01X44562D01*
X42874Y58716D01*
X40880D01*
G02X38850Y58464I-1180J1202D01*
G03X38248Y58119I-202J-345D01*
G01Y55274D01*
X54452Y39070D01*
X59897D01*
G03X60261Y39637I0J400D01*
G02X60690Y41612I1531J702D01*
G01Y46093D01*
X64025Y49428D01*
X70904D01*
G03X71187Y50110I0J400D01*
G01X69990Y51307D01*
X69904Y51305D01*
G02X71550Y52951I-38J1684D01*
G01X71548Y52865D01*
X72675Y51738D01*
X76803D01*
X80128Y48412D01*
Y37459D01*
X78978Y36308D01*
X78980Y36222D01*
G02X78314Y34842I-1684J-38D01*
G03X78555Y34124I242J-318D01*
G01X78910D01*
X87893Y43106D01*
X93859D01*
G02Y40704I1180J-1201D01*
G01X88889D01*
X79906Y31720D01*
X65481D01*
X60534Y36668D01*
X54458D01*
G03X54175Y35985I0J-400D01*
G01X55410Y34750D01*
X56368D01*
X62297Y28820D01*
X66257D01*
G02Y24618I0J-2101D01*
G37*
G36*
G01X25231Y32322D02*
X37269Y20284D01*
X81864D01*
X93626Y32046D01*
Y36255D01*
X94466Y37095D01*
X94476Y37108D01*
G02X94860Y37492I1367J-983D01*
G01X94873Y37502D01*
X95263Y37892D01*
X114640D01*
X116593Y35938D01*
X127120D01*
X128164Y36983D01*
Y61895D01*
X127938Y62122D01*
X124034D01*
X118170Y67985D01*
Y68083D01*
G03X117829Y68224I-200J-1D01*
G01X101411Y51806D01*
X86557D01*
G02Y54208I-1180J1201D01*
G01X94200D01*
G03X94341Y54550I0J200D01*
G01X94066Y54825D01*
Y84167D01*
X95146Y85246D01*
X135650D01*
X139658Y81238D01*
X139659D01*
X146184Y74713D01*
Y15884D01*
X137753Y7454D01*
X36187D01*
X33266Y10374D01*
X13084D01*
X1458Y22000D01*
Y53314D01*
X2376Y54232D01*
X23941D01*
X25584Y52589D01*
Y38487D01*
X22268Y35171D01*
Y32692D01*
X22637Y32322D01*
X25231D01*
G37*
G54D19*
X92472Y99536D03*
X50740D03*
G54D20*
X40740D03*
X30740D03*
G54D21*
X20740D03*
%LPD*%
G75*
G36*
G01X145582Y74464D02*
Y16133D01*
X137504Y8055D01*
X36436D01*
X34896Y9595D01*
X34882Y9644D01*
G03X33741Y10785I-1616J-475D01*
G01X33692Y10799D01*
X33515Y10976D01*
X13333D01*
X2060Y22249D01*
Y53065D01*
X2625Y53630D01*
X23692D01*
X24982Y52340D01*
Y38736D01*
X21666Y35420D01*
Y32443D01*
X22388Y31721D01*
X24982D01*
X37020Y19682D01*
X43891D01*
G03X46469I1289J1084D01*
G01X82113D01*
X94228Y31797D01*
Y36006D01*
X95512Y37290D01*
X114391D01*
X116344Y35337D01*
X127369D01*
X128766Y36734D01*
Y37250D01*
G03Y39470I-1266J1110D01*
G01Y59753D01*
G03X128808Y61875I-1286J1087D01*
G01X128766Y61929D01*
Y62144D01*
X128187Y62723D01*
X124283D01*
X118772Y68234D01*
Y71968D01*
X117775Y72965D01*
X117774D01*
X117748Y72991D01*
X116254D01*
X115250Y71987D01*
Y69043D01*
X100675Y54468D01*
X95274D01*
X94668Y55074D01*
Y83918D01*
X95395Y84645D01*
X120967D01*
G03X123505Y84354I1394J945D01*
G02X123777I136J-146D01*
G03X126065I1144J1236D01*
G02X126336I135J-147D01*
G03X128874Y84645I1144J1236D01*
G01X135401D01*
X139409Y80637D01*
X139410D01*
X145582Y74464D01*
G37*
%LPC*%
G75*
G54D18*
X116801Y24101D03*
X142951Y38340D03*
Y68262D03*
%LPD*%
G75*
G54D10*
X24604Y6019D03*
X15942D03*
X7280D03*
X24604Y9169D03*
X15942D03*
X7280D03*
X23160Y42526D03*
X18160D03*
X13160D03*
X8160D03*
X3160D03*
Y47526D03*
X8160D03*
X13160D03*
X18160D03*
X23160D03*
Y52526D03*
X18160D03*
X13160D03*
X8160D03*
X3160D03*
X11324Y66607D03*
X21324D03*
Y56607D03*
X11324D03*
X1324D03*
Y66607D03*
X21324Y86607D03*
X1324D03*
X11324D03*
Y96607D03*
X1324D03*
Y106607D03*
X11324D03*
X21324D03*
X23490Y34206D03*
X23230Y71036D03*
Y76036D03*
Y81036D03*
X18230Y71036D03*
X13230D03*
X8230D03*
X3230D03*
Y76036D03*
X8230D03*
X13230D03*
X18230D03*
Y81036D03*
X13230D03*
X8230D03*
X3230D03*
X116801Y24101D03*
X95843Y32975D03*
X98993D03*
X79645Y24496D03*
X69645D03*
X113266Y6019D03*
X103266D03*
X93266D03*
X83266D03*
X73266D03*
X63266D03*
X53266D03*
X43266D03*
X33266D03*
Y9169D03*
X47488Y32114D03*
X54180Y29465D03*
X87552Y29477D03*
X76039Y30149D03*
X45180Y20766D03*
X66257Y26719D03*
X63107D03*
X85927Y45873D03*
X116849Y46657D03*
X116962Y71293D03*
X85377Y53007D03*
X95039Y41905D03*
X41573Y63013D03*
X78761Y61606D03*
X39700Y59918D03*
X69866Y52989D03*
X77296Y36184D03*
X66414Y45897D03*
X76489Y39594D03*
X76513Y46993D03*
X61792Y40338D03*
X45089Y73081D03*
X48820D03*
X102143Y36125D03*
X98993D03*
X95843D03*
X95762Y58737D03*
X98912D03*
Y55587D03*
X95762D03*
X102062Y58737D03*
X95843Y83553D03*
X98993D03*
Y80403D03*
X95843D03*
X102143Y83553D03*
X92264Y66677D03*
X72264Y76677D03*
X82264Y66677D03*
Y76677D03*
X102956Y43115D03*
X86520Y34990D03*
X38393Y40396D03*
X28393D03*
X31324Y106607D03*
X41324D03*
X51324D03*
X61324D03*
X71324D03*
X81324D03*
X91324D03*
X111324Y96607D03*
X101324D03*
Y106607D03*
X111324D03*
X90411Y48512D03*
X73094Y52989D03*
X116116Y61606D03*
X116241Y39126D03*
X47850Y57316D03*
X52850D03*
X57850D03*
Y52316D03*
X52850D03*
X47850D03*
Y47316D03*
X52850D03*
X57850D03*
X116389Y86426D03*
X58190Y35412D03*
X87264Y76677D03*
X61555Y71510D03*
X32847Y46815D03*
X64666Y65397D03*
X153266Y26019D03*
Y16019D03*
Y6019D03*
X143266D03*
X133266D03*
X123266D03*
X150439Y32623D03*
X127008Y43604D03*
X122008D03*
X153266Y56019D03*
Y46019D03*
X131324Y86607D03*
X141324D03*
X151324D03*
Y96607D03*
X141324D03*
X131324D03*
X121324D03*
X151324Y106607D03*
X141324D03*
X131324D03*
X121324D03*
X122381Y38360D03*
X124941D03*
X127500D03*
X127480Y60840D03*
X124921D03*
X122361D03*
X142951Y38340D03*
X150439Y44057D03*
X142951Y68262D03*
X150439Y62545D03*
Y73979D03*
X127480Y85590D03*
X124921D03*
X122361D03*
G54D11*
X20740Y99536D03*
X62472D03*
G54D12*
X92472D03*
X82472D03*
X72472D03*
X50740D03*
X40740D03*
X30740D03*
G54D13*
G01X77296Y36184D02*
X79027Y37915D01*
Y47956D01*
X76347Y50636D01*
X72219D01*
X69866Y52989D01*
G01X76489Y39594D02*
X72717D01*
X66414Y45897D01*
G01X76513Y46993D02*
X75180Y48326D01*
X64481D01*
X61792Y45637D01*
Y40338D01*
G54D14*
G01X50740Y99536D02*
Y103388D01*
G01Y99536D02*
Y95684D01*
G01Y99536D02*
X54592D01*
G01X46888D02*
X50740D01*
G01X92472D02*
Y103388D01*
G01Y99536D02*
X88620D01*
G01X92472D02*
Y95684D01*
G01Y99536D02*
X96324D01*
G54D15*
G01X85927Y45873D02*
X113881D01*
X114665Y46657D01*
X116849D01*
G01X85377Y53007D02*
X100913D01*
X116962Y69056D01*
Y71293D01*
G01X95039Y41905D02*
X88391D01*
X79408Y32922D01*
X65979D01*
X61032Y37869D01*
X53954D01*
X37047Y54776D01*
Y61813D01*
X38247Y63013D01*
X41573D01*
G01X78761Y61606D02*
X44064D01*
X42376Y59918D01*
X39700D01*
G01X45089Y73081D02*
X47819Y75811D01*
X54959D01*
X72472Y93324D01*
Y99536D01*
G01X82472D02*
X56017Y73081D01*
X48820D01*
G54D16*
G01X34718Y72078D02*
X33357Y70717D01*
Y53831D01*
X54540Y32648D01*
X55498D01*
X61427Y26719D01*
X63107D01*
G01X66257D02*
X63107D01*
G01X62472Y99536D02*
X35014Y72078D01*
X34718D01*
G01D02*
X39218Y67578D01*
X62485D01*
X64666Y65397D01*
G54D17*
G01X0Y26D02*
X155000D01*
G03X157500Y2526I0J2500D01*
G01Y107526D01*
G03X155000Y110026I-2500J0D01*
G01X0D01*
G03X-2500Y107526I0J-2500D01*
G01Y2526D01*
G03X0Y26I2500J0D01*
M02*
