G04 ================== begin FILE IDENTIFICATION RECORD ==================*
G04 Layout Name:  C:/Users/abcd/Documents/GitHub/sophum_esc_v3/PCB/sophum_esc_v3.brd*
G04 Film Name:    TOP*
G04 File Format:  Gerber RS274X*
G04 File Origin:  Cadence Allegro 16.6-2015-S066*
G04 Origin Date:  Thu May 07 12:56:15 2020*
G04 *
G04 Layer:  VIA CLASS/TOP*
G04 Layer:  PIN/TOP*
G04 Layer:  ETCH/TOP*
G04 Layer:  BOARD GEOMETRY/OUTLINE*
G04 *
G04 Offset:    (0.00 0.00)*
G04 Mirror:    No*
G04 Mode:      Positive*
G04 Rotation:  0*
G04 FullContactRelief:  No*
G04 UndefLineWidth:     6.00*
G04 ================== end FILE IDENTIFICATION RECORD ====================*
%FSLAX55Y55*MOIN*%
%IR0*IPPOS*OFA0.00000B0.00000*MIA0B0*SFA1.00000B1.00000*%
%ADD11C,.02165*%
%ADD23R,.0315X.0315*%
%ADD18R,.02008X.02008*%
%ADD25R,.11811X.08268*%
%ADD24C,.06299*%
%ADD12R,.06299X.06299*%
%ADD10R,.07008X.05*%
%ADD22R,.01181X.02362*%
%ADD21R,.02362X.01181*%
%ADD13R,.04331X.02362*%
%ADD19R,.05X.04488*%
%ADD26R,.06299X.0315*%
%ADD20R,.13583X.13583*%
%AMMACRO15*
4,1,28,-.04488,.04823,
-.04488,-.04823,
-.02854,-.04823,
-.02854,-.06319,
-.01161,-.06319,
-.01161,-.04823,
.03307,-.04823,
.03307,-.04626,
.04488,-.04626,
.04488,-.03051,
.03307,-.03051,
.03307,-.02067,
.04488,-.02067,
.04488,-.00492,
.03307,-.00492,
.03307,.00492,
.04488,.00492,
.04488,.02067,
.03307,.02067,
.03307,.03051,
.04488,.03051,
.04488,.04626,
.03307,.04626,
.03307,.04823,
-.01161,.04823,
-.01161,.06319,
-.02854,.06319,
-.02854,.04823,
-.04488,.04823,
0.0*
%
%ADD15MACRO15*%
%AMMACRO14*
4,1,28,.04823,.04488,
-.04823,.04488,
-.04823,.02854,
-.06319,.02854,
-.06319,.01161,
-.04823,.01161,
-.04823,-.03307,
-.04626,-.03307,
-.04626,-.04488,
-.03051,-.04488,
-.03051,-.03307,
-.02067,-.03307,
-.02067,-.04488,
-.00492,-.04488,
-.00492,-.03307,
.00492,-.03307,
.00492,-.04488,
.02067,-.04488,
.02067,-.03307,
.03051,-.03307,
.03051,-.04488,
.04626,-.04488,
.04626,-.03307,
.04823,-.03307,
.04823,.01161,
.06319,.01161,
.06319,.02854,
.04823,.02854,
.04823,.04488,
0.0*
%
%ADD14MACRO14*%
%ADD27R,.01378X.01968*%
%ADD16R,.01968X.01378*%
%ADD17R,.01968X.02559*%
%ADD28C,.02*%
%ADD29C,.012*%
%ADD30C,.014*%
%ADD31C,.024*%
%ADD32C,.006*%
%ADD33C,.07302*%
%ADD34C,.07502*%
%ADD35R,.07502X.07502*%
G75*
%LPD*%
G75*
G36*
G01X0Y1030D02*
G02X-1496Y2526I0J1496D01*
G01Y107526D01*
G02X0Y109022I1496J0D01*
G01X155000D01*
G02X156496Y107526I0J-1496D01*
G01Y2526D01*
G02X155000Y1030I-1496J0D01*
G01X0D01*
G37*
%LPC*%
G75*
G36*
G01X44309Y14434D02*
X38621D01*
X36571Y16484D01*
X5901D01*
X2684Y19701D01*
Y39786D01*
X1896Y40574D01*
X1330D01*
G02X-272Y42176I0J1602D01*
G01Y53006D01*
G02X1330Y54608I1602J0D01*
G01X25370D01*
G02X26972Y53006I0J-1602D01*
G01Y42176D01*
G02X25370Y40574I-1602J0D01*
G01X23031D01*
X22202Y39745D01*
Y31511D01*
X23405Y30308D01*
X39592D01*
G03X39875Y30990I0J400D01*
G01X38618Y32247D01*
Y32600D01*
X35950D01*
Y32604D01*
X34880D01*
Y32030D01*
X30526D01*
Y36382D01*
X34880D01*
Y35808D01*
X35950D01*
Y35812D01*
X39165D01*
X39961Y36608D01*
X41118D01*
X43894Y39383D01*
Y44154D01*
X41826D01*
Y45614D01*
X40640D01*
Y45210D01*
X37428D01*
Y48082D01*
X36033D01*
X26426Y57689D01*
Y92151D01*
X22792Y95785D01*
X16989D01*
Y103287D01*
X24491D01*
Y97484D01*
X28828Y93147D01*
Y58685D01*
X29197Y58316D01*
G03X29538Y58457I141J142D01*
G01Y95983D01*
G02X31942I1202J3553D01*
G01Y58916D01*
X32418Y58439D01*
G03X33100Y58722I282J283D01*
G01Y93596D01*
X37376Y97871D01*
X37319Y97997D01*
G02X39201Y96115I3421J1539D01*
G01X39075Y96172D01*
X35504Y92600D01*
Y58164D01*
X35865Y57802D01*
G03X36206Y57943I141J142D01*
G01Y72179D01*
X51655Y87628D01*
X101490D01*
Y88032D01*
X107930D01*
Y88028D01*
X108578D01*
Y88032D01*
X108882D01*
Y89051D01*
X110698Y90868D01*
X118941D01*
X121104Y88705D01*
Y82428D01*
G02X121094Y82271I-1302J4D01*
G01X121092Y82259D01*
Y81186D01*
X128990D01*
X131002Y79174D01*
Y73350D01*
X143638Y60714D01*
Y57026D01*
X142972Y56360D01*
X143804Y55528D01*
Y51284D01*
X142937Y50416D01*
X143602Y49751D01*
Y40015D01*
X132644Y29058D01*
Y24478D01*
X130521Y22354D01*
X106857D01*
X102833Y18330D01*
X86317D01*
X82042Y22605D01*
Y40330D01*
X81218D01*
Y38406D01*
X78982Y36171D01*
X78978Y36094D01*
G02X77386Y34502I-1682J90D01*
G01X77309Y34498D01*
X75696Y32884D01*
X74700D01*
Y32480D01*
X68030D01*
Y31754D01*
X71472D01*
Y28544D01*
X68232D01*
Y20546D01*
X66718Y19032D01*
X54345D01*
Y18228D01*
X56822D01*
X57214Y17836D01*
X58726D01*
Y14624D01*
X55514D01*
Y15824D01*
X54345D01*
Y15244D01*
X48811D01*
Y18808D01*
X48904D01*
G03X49045Y19150I0J200D01*
G01X44967Y23228D01*
X44720Y23126D01*
Y23056D01*
X43699Y22034D01*
X39132D01*
Y19468D01*
X43919D01*
X45022Y18365D01*
Y15147D01*
X44309Y14434D01*
G37*
G54D33*
X92472Y99536D03*
X50740D03*
G54D34*
X82472D03*
X72472D03*
G54D35*
X62472D03*
%LPD*%
G75*
G36*
G01X38870Y15036D02*
X36820Y17086D01*
X6150D01*
X3286Y19950D01*
Y40035D01*
X2145Y41176D01*
X1330D01*
G02X330Y42176I0J1000D01*
G01Y53006D01*
G02X1330Y54006I1000J0D01*
G01X25370D01*
G02X26370Y53006I0J-1000D01*
G01Y42176D01*
G02X25370Y41176I-1000J0D01*
G01X22782D01*
X21600Y39994D01*
Y31255D01*
X21607D01*
X23156Y29706D01*
X42284D01*
X44110Y27880D01*
Y24085D01*
X44119Y24076D01*
Y23305D01*
X43450Y22636D01*
X38660D01*
X38530Y22506D01*
Y18986D01*
X38650Y18866D01*
X43670D01*
X44420Y18116D01*
Y15396D01*
X44060Y15036D01*
X38870D01*
G37*
G36*
G01X26370Y70676D02*
G02X25370Y69676I-1000J0D01*
G01X1330D01*
G02X330Y70676I0J1000D01*
G01Y81506D01*
G02X1330Y82506I1000J0D01*
G01X25370D01*
G02X26370Y81506I0J-1000D01*
G01Y70676D01*
G37*
G36*
G01X142749Y40013D02*
X142685Y40003D01*
G03X141288Y38606I266J-1663D01*
G01X141278Y38542D01*
X132043Y29307D01*
Y24727D01*
X130272Y22956D01*
X106228D01*
X104755Y24429D01*
Y36671D01*
X105481Y37397D01*
X114068D01*
X117910Y33555D01*
X128675D01*
X128733Y33612D01*
X128790D01*
Y33670D01*
X129936Y34816D01*
Y39453D01*
X132646Y42163D01*
Y49612D01*
X133239Y50205D01*
X142297D01*
X143000Y49502D01*
Y40264D01*
X142749Y40013D01*
G37*
G36*
G01X93917Y33124D02*
Y36792D01*
X94533Y37408D01*
X100230D01*
Y37405D01*
X103401D01*
X104138Y36668D01*
Y27471D01*
X103827Y27160D01*
X101039D01*
X100066Y26187D01*
X98353D01*
X97900Y26640D01*
Y30845D01*
X97089Y31656D01*
X95385D01*
X93917Y33124D01*
G37*
G36*
G01X101837Y20734D02*
X87313D01*
X84446Y23601D01*
Y40330D01*
X84850D01*
Y43542D01*
X79867D01*
G02X79726Y43883I0J200D01*
G01X80109Y44267D01*
X85420D01*
X85447Y44259D01*
G03X87596Y45652I480J1614D01*
G01X87605Y45719D01*
X87795Y45908D01*
X88104Y45598D01*
Y35538D01*
X93984Y29659D01*
Y27596D01*
X97298D01*
Y26391D01*
X97604Y26085D01*
Y25354D01*
X96908D01*
X96131Y24576D01*
X94596D01*
Y25256D01*
X91424D01*
Y21494D01*
X94596D01*
Y22174D01*
X97127D01*
X97500Y22546D01*
X100816D01*
Y22880D01*
X102492Y24556D01*
X104154D01*
Y24180D01*
X104719Y23615D01*
X101837Y20734D01*
G37*
G36*
G01X54028Y27108D02*
X53176Y27960D01*
Y36981D01*
X53030Y37127D01*
Y38473D01*
G02X53371Y38614I200J-1D01*
G01X53754Y38230D01*
Y37034D01*
X56966D01*
Y37038D01*
X58531D01*
X61506Y34064D01*
Y29762D01*
X61486Y29742D01*
Y27443D01*
X61150Y27108D01*
X54028D01*
G37*
G36*
G01X49412Y19634D02*
X44712Y24334D01*
Y28159D01*
X42494Y30377D01*
X41339D01*
X39220Y32496D01*
Y35016D01*
X40210Y36006D01*
X41367D01*
X44495Y39134D01*
Y44013D01*
X44636Y44154D01*
X45390D01*
Y44156D01*
X46585D01*
X46730Y44011D01*
Y41108D01*
X47291Y40547D01*
X47969D01*
X49530Y38986D01*
Y37136D01*
X49658Y37008D01*
X52298D01*
X52574Y36732D01*
Y29972D01*
X52566Y29945D01*
G03Y28985I1614J-480D01*
G01X52574Y28958D01*
Y27711D01*
X53788Y26497D01*
X54091D01*
X54100Y26506D01*
X61399D01*
X62087Y27194D01*
Y29493D01*
X62660Y30066D01*
X66012D01*
X67630Y28448D01*
Y20795D01*
X66469Y19634D01*
X49412D01*
G37*
G36*
G01X106147Y45568D02*
X104678Y47036D01*
X104704D01*
Y57296D01*
X104674D01*
Y59283D01*
X105391Y60000D01*
X107902D01*
Y60004D01*
X108550D01*
Y60000D01*
X113996D01*
X118019Y55977D01*
X142505D01*
X143203Y55279D01*
Y51533D01*
X142490Y50820D01*
X131351D01*
X130319Y49788D01*
Y47158D01*
X128729Y45568D01*
X106147D01*
G37*
G36*
G01X143036Y57275D02*
X142407Y56646D01*
X136225D01*
X122886Y69985D01*
X106228D01*
X104755Y71458D01*
Y83700D01*
X105481Y84426D01*
X114068D01*
X117910Y80584D01*
X128741D01*
X130400Y78925D01*
Y73101D01*
X143036Y60465D01*
Y57275D01*
G37*
G36*
G01X98272Y48799D02*
X97819Y49252D01*
Y53457D01*
X97008Y54268D01*
X95130D01*
X93836Y55562D01*
Y59404D01*
X94452Y60020D01*
X100149D01*
Y60017D01*
X101464D01*
Y60000D01*
X103337D01*
X104057Y59280D01*
Y50083D01*
X103746Y49772D01*
X100958D01*
X99985Y48799D01*
X98272D01*
G37*
G36*
G01X103414Y84820D02*
X104138Y84096D01*
Y74899D01*
X103827Y74588D01*
X101039D01*
X100066Y73615D01*
X98353D01*
X97900Y74068D01*
Y78273D01*
X97089Y79084D01*
X95211D01*
X93917Y80378D01*
Y84220D01*
X94533Y84836D01*
X100230D01*
Y84833D01*
X101490D01*
Y84820D01*
X103414D01*
G37*
G36*
G01X118532Y34156D02*
X118159D01*
X114317Y37998D01*
X111822D01*
Y40554D01*
X117471D01*
X118520Y39505D01*
Y35198D01*
G03X118530Y35041I1302J4D01*
G01X118532Y35029D01*
Y34156D01*
G37*
G36*
G01X45390Y44767D02*
Y59705D01*
X60330D01*
Y44767D01*
X45390D01*
G37*
G36*
G01X105979Y69384D02*
X122637D01*
X134759Y57261D01*
G02X134476Y56578I-283J-283D01*
G01X121092D01*
Y57509D01*
X121094Y57521D01*
G03X121104Y57678I-1292J161D01*
G01Y63368D01*
X117863Y66608D01*
X111514D01*
X108854Y63949D01*
Y63212D01*
X108550D01*
Y63208D01*
X107903D01*
Y63212D01*
X101463D01*
Y62808D01*
X79941D01*
G03Y60404I-1180J-1202D01*
G01X93020D01*
G02X93303Y59722I0J-400D01*
G01X93234Y59653D01*
Y57022D01*
G02X92552Y56739I-400J0D01*
G01X89898Y59394D01*
X76774D01*
X73798Y62369D01*
Y68905D01*
X64561Y78142D01*
X57719D01*
X55728Y76151D01*
G02X55046Y76434I-282J283D01*
G01Y77270D01*
X59094Y81318D01*
X89484D01*
X93944Y76859D01*
Y74796D01*
X97298D01*
Y73819D01*
X97584Y73533D01*
Y72574D01*
X95053D01*
X94802Y72322D01*
X94556Y72425D01*
Y72456D01*
X91384D01*
Y68694D01*
X94556D01*
Y69374D01*
X95252D01*
X96049Y70170D01*
X97584D01*
Y69766D01*
X100796D01*
Y70579D01*
X102003Y71786D01*
X104154D01*
Y71209D01*
X105979Y69384D01*
G37*
G36*
G01X112592Y64006D02*
X116785D01*
X118500Y62290D01*
Y57678D01*
G03X118510Y57521I1302J4D01*
G01X118512Y57509D01*
Y57301D01*
G02X117829Y57018I-400J0D01*
G01X114236Y60610D01*
X111762D01*
Y63175D01*
X112592Y64006D01*
G37*
G36*
G01X118159Y81186D02*
X114317Y85028D01*
X111788D01*
Y88264D01*
X117863D01*
X118500Y87627D01*
Y82428D01*
G03X118510Y82271I1302J4D01*
G01X118512Y82259D01*
Y81186D01*
X118159D01*
G37*
G36*
G01X93316Y34691D02*
G02X92633Y34408I-400J0D01*
G01X90508Y36534D01*
Y46594D01*
X88960Y48142D01*
Y54587D01*
X87238Y56308D01*
G02X87521Y56990I283J282D01*
G01X88902D01*
X93944Y51949D01*
Y49886D01*
X97218D01*
Y49003D01*
X97584Y48636D01*
Y47824D01*
X95213D01*
X94802Y47412D01*
X94556Y47515D01*
Y47546D01*
X91384D01*
Y43784D01*
X93571D01*
G02X93853Y43100I0J-400D01*
G03X94949Y40223I1186J-1195D01*
G01X95026Y40219D01*
X96553Y38692D01*
G02X96270Y38010I-283J-282D01*
G01X94284D01*
X93316Y37041D01*
Y34691D01*
G37*
G36*
G01X121112Y34156D02*
Y35029D01*
X121114Y35041D01*
G03X121124Y35198I-1292J161D01*
G01Y40583D01*
X118549Y43158D01*
X110603D01*
X108914Y41469D01*
Y40732D01*
X108610D01*
Y40728D01*
X107963D01*
Y40732D01*
X101523D01*
Y40328D01*
X98316D01*
X96725Y41918D01*
X96721Y41995D01*
G03X94972Y43588I-1682J-90D01*
G02X94556Y43987I-16J399D01*
G01Y44464D01*
X95252D01*
X96209Y45420D01*
X97584D01*
Y45016D01*
X100796D01*
Y45420D01*
X100961D01*
X102577Y47036D01*
X104072D01*
Y46792D01*
X105898Y44966D01*
X128978D01*
X130920Y46909D01*
Y49539D01*
X131600Y50218D01*
X131919D01*
G02X132060Y49877I0J-200D01*
G01X132044Y49861D01*
Y42412D01*
X129334Y39702D01*
Y35065D01*
X128426Y34156D01*
X121112D01*
G37*
G36*
G01X66586Y43162D02*
X66215Y43532D01*
G02X66482Y44214I283J282D01*
G03X67539Y44644I-69J1683D01*
G01X67596Y44696D01*
X68260D01*
Y44292D01*
X71472D01*
Y47502D01*
X68260D01*
Y47098D01*
X67596D01*
X67539Y47150D01*
G03X66504Y47579I-1126J-1253D01*
G01X66427Y47583D01*
X66270Y47740D01*
G02X66411Y48082I141J142D01*
G01X68009D01*
X68156Y48228D01*
X71472D01*
Y51440D01*
X71068D01*
Y51807D01*
X71119Y51864D01*
G03X68613I-1253J1125D01*
G01X68664Y51807D01*
Y51440D01*
X68260D01*
Y51036D01*
X67564D01*
X67013Y50484D01*
X63894D01*
Y60318D01*
X60942D01*
Y61341D01*
X60944Y61352D01*
G03X60952Y61488I-1194J138D01*
G01Y63094D01*
X61649Y63792D01*
X63160D01*
Y63796D01*
X64145D01*
X64173Y63787D01*
G03Y67007I493J1610D01*
G01X64145Y66998D01*
X63160D01*
Y67002D01*
X59950D01*
Y65491D01*
X59665Y65206D01*
G02X58982Y65489I-283J283D01*
G01Y71303D01*
X60609Y72930D01*
X62014D01*
X68268Y66675D01*
Y60854D01*
X74723Y54400D01*
X83545D01*
G02X83896Y53809I-1J-400D01*
G03X83695Y53097I1481J-802D01*
G01X83691Y53020D01*
X82087Y51416D01*
X78410D01*
Y51012D01*
X77516D01*
X75312Y48807D01*
Y48173D01*
G03X75280Y45846I1201J-1180D01*
G01X73001Y43566D01*
X68260D01*
Y43162D01*
X66586D01*
G37*
%LPC*%
G75*
G36*
G01X49090Y33806D02*
Y32635D01*
X49098Y32607D01*
G02X45878I-1610J-493D01*
G01X45886Y32635D01*
Y33806D01*
X45882D01*
Y37018D01*
X49094D01*
Y33806D01*
X49090D01*
G37*
%LPD*%
G75*
G54D10*
X7280Y13252D03*
Y25220D03*
X24604Y13252D03*
Y25220D03*
X15942Y13252D03*
Y25220D03*
X33266Y13252D03*
Y25220D03*
G54D20*
X52860Y52236D03*
G54D11*
X24604Y6019D03*
X15942D03*
X7280D03*
X24604Y9169D03*
X15942D03*
X7280D03*
X23160Y42526D03*
X18160D03*
X13160D03*
X8160D03*
X3160D03*
Y47526D03*
X8160D03*
X13160D03*
X18160D03*
X23160D03*
Y52526D03*
X18160D03*
X13160D03*
X8160D03*
X3160D03*
X11324Y66607D03*
X21324D03*
Y56607D03*
X11324D03*
X1324D03*
Y66607D03*
X21324Y86607D03*
X1324D03*
X11324D03*
Y96607D03*
X1324D03*
Y106607D03*
X11324D03*
X21324D03*
X23490Y34206D03*
X23230Y71036D03*
Y76036D03*
Y81036D03*
X18230Y71036D03*
X13230D03*
X8230D03*
X3230D03*
Y76036D03*
X8230D03*
X13230D03*
X18230D03*
Y81036D03*
X13230D03*
X8230D03*
X3230D03*
X116801Y24101D03*
X95843Y32975D03*
X98993D03*
X79645Y24496D03*
X69645D03*
X113266Y6019D03*
X103266D03*
X93266D03*
X83266D03*
X73266D03*
X63266D03*
X53266D03*
X43266D03*
X33266D03*
Y9169D03*
X47488Y32114D03*
X54180Y29465D03*
X87552Y29477D03*
X76039Y30149D03*
X45180Y20766D03*
X66257Y26719D03*
X63107D03*
X85927Y45873D03*
X116849Y46657D03*
X116962Y71293D03*
X85377Y53007D03*
X95039Y41905D03*
X41573Y63013D03*
X78761Y61606D03*
X39700Y59918D03*
X69866Y52989D03*
X77296Y36184D03*
X66414Y45897D03*
X76489Y39594D03*
X76513Y46993D03*
X61792Y40338D03*
X45089Y73081D03*
X48820D03*
X102143Y36125D03*
X98993D03*
X95843D03*
X95762Y58737D03*
X98912D03*
Y55587D03*
X95762D03*
X102062Y58737D03*
X95843Y83553D03*
X98993D03*
Y80403D03*
X95843D03*
X102143Y83553D03*
X92264Y66677D03*
X72264Y76677D03*
X82264Y66677D03*
Y76677D03*
X102956Y43115D03*
X86520Y34990D03*
X38393Y40396D03*
X28393D03*
X31324Y106607D03*
X41324D03*
X51324D03*
X61324D03*
X71324D03*
X81324D03*
X91324D03*
X111324Y96607D03*
X101324D03*
Y106607D03*
X111324D03*
X90411Y48512D03*
X73094Y52989D03*
X116116Y61606D03*
X116241Y39126D03*
X47850Y57316D03*
X52850D03*
X57850D03*
Y52316D03*
X52850D03*
X47850D03*
Y47316D03*
X52850D03*
X57850D03*
X116389Y86426D03*
X58190Y35412D03*
X87264Y76677D03*
X61555Y71510D03*
X32847Y46815D03*
X64666Y65397D03*
X153266Y26019D03*
Y16019D03*
Y6019D03*
X143266D03*
X133266D03*
X123266D03*
X150439Y32623D03*
X127008Y43604D03*
X122008D03*
X153266Y56019D03*
Y46019D03*
X131324Y86607D03*
X141324D03*
X151324D03*
Y96607D03*
X141324D03*
X131324D03*
X121324D03*
X151324Y106607D03*
X141324D03*
X131324D03*
X121324D03*
X122381Y38360D03*
X124941D03*
X127500D03*
X127480Y60840D03*
X124921D03*
X122361D03*
X142951Y38340D03*
X150439Y44057D03*
X142951Y68262D03*
X150439Y62545D03*
Y73979D03*
X127480Y85590D03*
X124921D03*
X122361D03*
G54D30*
G01X119802Y57678D02*
Y62829D01*
X117324Y65307D01*
X112053D01*
X110156Y63410D01*
Y61606D01*
G01X119802Y82428D02*
Y88166D01*
X118402Y89566D01*
X111237D01*
X110183Y88512D01*
Y86426D01*
G01X110216Y39126D02*
Y40930D01*
X111142Y41856D01*
X118010D01*
X119822Y40044D01*
Y35198D01*
G01X122381D02*
Y38360D01*
G01X124941Y35198D02*
Y38360D01*
G01X127500Y35198D02*
Y38360D01*
G01X127480Y57678D02*
Y60840D01*
G01X124921Y57678D02*
Y60840D01*
G01X122361Y57678D02*
Y60840D01*
G01X127480Y82428D02*
Y85590D01*
G01X124921Y82428D02*
Y85590D01*
G01X122361Y82428D02*
Y85590D01*
G54D21*
X43608Y45346D03*
Y47315D03*
Y49283D03*
Y51252D03*
Y53220D03*
Y55189D03*
Y57157D03*
Y59126D03*
X62112D03*
Y57157D03*
Y55189D03*
Y53220D03*
Y51252D03*
Y49283D03*
Y47315D03*
Y45346D03*
G54D12*
X20740Y99536D03*
X62472D03*
G54D31*
G01X41342Y20766D02*
X45180D01*
G54D13*
X51578Y24506D03*
Y17026D03*
X41342D03*
Y20766D03*
Y24506D03*
G54D22*
X45970Y61488D03*
X47939D03*
X49907D03*
X51876D03*
X53844D03*
X55813D03*
X57781D03*
X59750D03*
Y42984D03*
X57781D03*
X55813D03*
X53844D03*
X51876D03*
X49907D03*
X47939D03*
X45970D03*
G54D32*
G01X0Y26D02*
X155000D01*
G03X157500Y2526I0J2500D01*
G01Y107526D01*
G03X155000Y110026I-2500J0D01*
G01X0D01*
G03X-2500Y107526I0J-2500D01*
G01Y2526D01*
G03X0Y26I2500J0D01*
G54D14*
X123661Y27678D03*
X123641Y74908D03*
Y50158D03*
G54D23*
X26797Y34206D03*
X32703D03*
G54D15*
X110658Y29686D03*
X110638Y76916D03*
Y52166D03*
G54D24*
X92472Y99536D03*
X82472D03*
X72472D03*
X50740D03*
X40740D03*
X30740D03*
G54D16*
X103138Y25847D03*
Y28406D03*
Y30966D03*
X103118Y73077D03*
Y75636D03*
Y78196D03*
Y80755D03*
Y48327D03*
Y50886D03*
Y53446D03*
Y56005D03*
X103138Y33525D03*
G54D25*
X150439Y68262D03*
Y38340D03*
G54D17*
X93010Y23375D03*
X95569Y29477D03*
X90451D03*
X92970Y70575D03*
X95529Y76677D03*
X90411D03*
X92970Y45665D03*
X95529Y51767D03*
X90411D03*
G54D26*
X139021Y58222D03*
Y53301D03*
Y48380D03*
G54D27*
X119802Y82428D03*
X122361D03*
X124921D03*
X127480D03*
X119802Y57678D03*
X122361D03*
X124921D03*
X127480D03*
X119822Y35198D03*
X122381D03*
X124941D03*
X127500D03*
G54D18*
X57120Y13002D03*
Y16230D03*
X99210Y24152D03*
Y27380D03*
X73094Y30149D03*
X69866D03*
X61555Y68625D03*
Y65397D03*
X55360Y35412D03*
Y38640D03*
X47488Y35412D03*
Y38640D03*
X69866Y41960D03*
X73094D03*
X69866Y38023D03*
X73094D03*
X69866Y34086D03*
X73094D03*
X113444Y39126D03*
X110216D03*
X113384Y61606D03*
X110156D03*
X113411Y86426D03*
X110183D03*
X51424Y38640D03*
Y35412D03*
X99190Y46622D03*
Y49850D03*
Y71372D03*
Y74600D03*
X106357Y39126D03*
X103129D03*
X106297Y61606D03*
X103069D03*
X106324Y86426D03*
X103096D03*
X37556Y34206D03*
X40784D03*
X73094Y45897D03*
X69866D03*
X73094Y49834D03*
X69866D03*
X80016Y41936D03*
X83244D03*
X80016Y45873D03*
X83244D03*
X80016Y49810D03*
X83244D03*
X39034Y46815D03*
X35806D03*
G54D28*
G01X24604Y13252D02*
Y9169D01*
G01X15942Y13252D02*
Y9169D01*
G01X7280Y13252D02*
Y9169D01*
G01X26797Y34206D02*
X23490D01*
G01X90451Y29477D02*
X87552D01*
G01X73094Y30149D02*
X76039D01*
G01X58301Y29565D02*
X54280D01*
X54180Y29465D01*
G01X63107Y26719D02*
Y34727D01*
X59194Y38640D01*
X55360D01*
G01X32703Y34206D02*
X37556D01*
G01X106297Y61606D02*
X110156D01*
G01X106324Y86426D02*
X110183D01*
G01X90411Y51767D02*
Y48512D01*
G01X73094Y45897D02*
Y49834D01*
G01D02*
Y52989D01*
G01X113384Y61606D02*
X116116D01*
G01X113444Y39126D02*
X116241D01*
G01X113411Y86426D02*
X116389D01*
G01X55360Y35412D02*
X58190D01*
G01X90411Y76677D02*
X87264D01*
G01X35806Y46815D02*
X32847D01*
G01X50740Y99536D02*
X46888D01*
G01X50740D02*
Y95684D01*
G01Y99536D02*
X54592D01*
G01X50740D02*
Y103388D01*
G01X92472Y99536D02*
Y103388D01*
G01Y99536D02*
X88620D01*
G01X92472D02*
Y95684D01*
G01Y99536D02*
X96324D01*
G01X47488Y35412D02*
Y32114D01*
G01X61555Y65397D02*
X64666D01*
G01X106357Y39126D02*
X110216D01*
G01X150439Y38340D02*
X142951D01*
G01X150439D02*
Y44057D01*
G01Y38340D02*
Y32623D01*
G01Y68262D02*
Y62545D01*
G01Y68262D02*
Y73979D01*
G01Y68262D02*
X142951D01*
G54D19*
X58301Y29565D03*
Y22951D03*
G54D29*
G01X43608Y49283D02*
X36531D01*
X27627Y58187D01*
Y92649D01*
X20740Y99536D01*
G01X108650Y25847D02*
X102335Y19532D01*
X86815D01*
X83244Y23103D01*
Y41936D01*
G01X95569Y29477D02*
Y29773D01*
X89306Y36036D01*
Y46096D01*
X87758Y47644D01*
Y54089D01*
X86246Y55601D01*
X75221D01*
X69470Y61352D01*
Y67173D01*
X62512Y74131D01*
X60111D01*
X57781Y71801D01*
Y61488D01*
G01X61792Y40338D02*
X66828Y35302D01*
Y31083D01*
X67762Y30149D01*
X69866D01*
G01X103138Y25847D02*
X102083D01*
X100388Y24152D01*
X99210D01*
G01X93010Y23375D02*
X96629D01*
X97406Y24152D01*
X99210D01*
G01X33266Y13252D02*
Y9169D01*
G01X51578Y17026D02*
X56324D01*
X57120Y16230D01*
G01X83244Y45873D02*
X85927D01*
G01X83244Y49810D02*
Y50874D01*
X85377Y53007D01*
G01X95529Y76677D02*
Y76973D01*
X89982Y82520D01*
X58596D01*
X53844Y77768D01*
Y61488D01*
G01X41573Y63013D02*
X43608Y60978D01*
Y59126D01*
G01X103129Y39126D02*
X97818D01*
X95039Y41905D01*
G01X55813Y61488D02*
Y74537D01*
X58217Y76941D01*
X64063D01*
X72597Y68407D01*
Y61871D01*
X76276Y58192D01*
X89400D01*
X95529Y52063D01*
Y51767D01*
G01X43608Y57157D02*
X40577D01*
X39700Y58034D01*
Y59918D01*
G01X78761Y61606D02*
X103069D01*
G01X103096Y86426D02*
X52153D01*
X37408Y71681D01*
Y57574D01*
X39793Y55189D01*
X43608D01*
G01X69866Y49834D02*
Y52989D01*
G01X62112Y49283D02*
X67511D01*
X68062Y49834D01*
X69866D01*
G01X80016Y41936D02*
Y38904D01*
X77296Y36184D01*
G01D02*
X75198Y34086D01*
X73094D01*
G01X62112Y47315D02*
X64996D01*
X66414Y45897D01*
G01D02*
X69866D01*
G01X76489Y39594D02*
X74918Y38023D01*
X73094D01*
G01X80016Y45873D02*
X76489Y42346D01*
Y39594D01*
G01X80016Y49810D02*
X78014D01*
X76513Y48309D01*
Y46993D01*
G01D02*
Y45379D01*
X73094Y41960D01*
G01X59750Y42984D02*
Y41670D01*
X61082Y40338D01*
X61792D01*
G01X69866Y38023D02*
Y34086D01*
G01Y41960D02*
Y38023D01*
G01X62112Y45346D02*
X62702D01*
X66088Y41960D01*
X69866D01*
G01X45089Y73081D02*
Y66081D01*
X45970Y65200D01*
Y61488D01*
G01X48820Y73081D02*
Y66081D01*
X47939Y65200D01*
Y61488D01*
G01X30740Y99536D02*
Y58418D01*
X37906Y51252D01*
X43608D01*
G01X39034Y46815D02*
X41127D01*
X41627Y47315D01*
X43608D01*
G01X40740Y99536D02*
X34302Y93098D01*
Y57666D01*
X38748Y53220D01*
X43608D01*
G01X99190Y46622D02*
X95711D01*
X94754Y45665D01*
X92970D01*
G01X103118Y48327D02*
X102168D01*
X100463Y46622D01*
X99190D01*
G01Y71372D02*
X95551D01*
X94754Y70575D01*
X92970D01*
G01X103118Y73077D02*
X101594D01*
X99889Y71372D01*
X99190D01*
G01X61555Y68625D02*
Y71510D01*
G01Y65397D02*
X59750Y63592D01*
Y61488D01*
G01X53844Y42984D02*
Y39840D01*
X55044Y38640D01*
X55360D01*
G01X51424D02*
Y40551D01*
X51876Y41003D01*
Y42984D01*
M02*
