G04 ================== begin FILE IDENTIFICATION RECORD ==================*
G04 Layout Name:  C:/Users/abcd/Documents/GitHub/sophum_esc_v3/PCB/sophum_esc_v3.brd*
G04 Film Name:    DRILL*
G04 File Format:  Gerber RS274X*
G04 File Origin:  Cadence Allegro 16.6-2015-S066*
G04 Origin Date:  Thu May 07 12:56:15 2020*
G04 *
G04 Layer:  MANUFACTURING/NCLEGEND-1-2*
G04 Layer:  MANUFACTURING/NCDRILL_LEGEND*
G04 Layer:  MANUFACTURING/NCDRILL_FIGURE*
G04 Layer:  BOARD GEOMETRY/OUTLINE*
G04 Layer:  BOARD GEOMETRY/DIMENSION*
G04 *
G04 Offset:    (0.00 0.00)*
G04 Mirror:    No*
G04 Mode:      Positive*
G04 Rotation:  0*
G04 FullContactRelief:  No*
G04 UndefLineWidth:     6.00*
G04 ================== end FILE IDENTIFICATION RECORD ====================*
%FSLAX55Y55*MOIN*%
%IR0*IPPOS*OFA0.00000B0.00000*MIA0B0*SFA1.00000B1.00000*%
%AMMACRO10*
1,1,.006,0.0,.025*
20,1,.006,0.0,.025,.021655,-.025,0.0*
1,1,.006,.021655,-.025*
20,1,.006,.021655,-.025,-.021655,-.025,0.0*
1,1,.006,-.021655,-.025*
20,1,.006,-.021655,-.025,0.0,.025,0.0*
1,1,.006,0.0,.025*
1,1,.006,-.00649,-.01082*
20,1,.006,-.00649,-.01082,-.00649,.01083,0.0*
1,1,.006,-.00649,.01083*
1,1,.006,-.00649,0.0*
20,1,.006,-.00649,0.0,-.00469,.00217,0.0*
1,1,.006,-.00469,.00217*
20,1,.006,-.00469,.00217,-.00252,.00325,0.0*
1,1,.006,-.00252,.00325*
20,1,.006,-.00252,.00325,-.00036,.00361,0.0*
1,1,.006,-.00036,.00361*
20,1,.006,-.00036,.00361,.00289,.00289,0.0*
1,1,.006,.00289,.00289*
20,1,.006,.00289,.00289,.00506,.00145,0.0*
1,1,.006,.00506,.00145*
20,1,.006,.00506,.00145,.0065,-.00108,0.0*
1,1,.006,.0065,-.00108*
20,1,.006,.0065,-.00108,.0065,-.00396,0.0*
1,1,.006,.0065,-.00396*
20,1,.006,.0065,-.00396,.00578,-.00685,0.0*
1,1,.006,.00578,-.00685*
20,1,.006,.00578,-.00685,.00434,-.00902,0.0*
1,1,.006,.00434,-.00902*
20,1,.006,.00434,-.00902,.00181,-.01046,0.0*
1,1,.006,.00181,-.01046*
20,1,.006,.00181,-.01046,-.00036,-.01082,0.0*
1,1,.006,-.00036,-.01082*
20,1,.006,-.00036,-.01082,-.00252,-.01046,0.0*
1,1,.006,-.00252,-.01046*
20,1,.006,-.00252,-.01046,-.00469,-.00938,0.0*
1,1,.006,-.00469,-.00938*
20,1,.006,-.00469,-.00938,-.00649,-.00757,0.0*
1,1,.006,-.00649,-.00757*
%
%ADD10MACRO10*%
%AMMACRO11*
1,1,.006,-.0101,-.03248*
20,1,.006,-.0101,-.03248,-.00505,-.03536,0.0*
1,1,.006,-.00505,-.03536*
20,1,.006,-.00505,-.03536,.00073,-.03609,0.0*
1,1,.006,.00073,-.03609*
20,1,.006,.00073,-.03609,.00578,-.03536,0.0*
1,1,.006,.00578,-.03536*
20,1,.006,.00578,-.03536,.01011,-.03176,0.0*
1,1,.006,.01011,-.03176*
20,1,.006,.01011,-.03176,.013,-.0267,0.0*
1,1,.006,.013,-.0267*
20,1,.006,.013,-.0267,.013,.00722,0.0*
1,1,.006,.013,.00722*
1,1,.006,.013,.00145*
20,1,.006,.013,.00145,.01011,.00434,0.0*
1,1,.006,.01011,.00434*
20,1,.006,.01011,.00434,.00578,.0065,0.0*
1,1,.006,.00578,.0065*
20,1,.006,.00578,.0065,.00073,.00722,0.0*
1,1,.006,.00073,.00722*
20,1,.006,.00073,.00722,-.00505,.00578,0.0*
1,1,.006,-.00505,.00578*
20,1,.006,-.00505,.00578,-.00866,.00289,0.0*
1,1,.006,-.00866,.00289*
20,1,.006,-.00866,.00289,-.01155,-.00216,0.0*
1,1,.006,-.01155,-.00216*
20,1,.006,-.01155,-.00216,-.01299,-.00721,0.0*
1,1,.006,-.01299,-.00721*
20,1,.006,-.01299,-.00721,-.01227,-.01155,0.0*
1,1,.006,-.01227,-.01155*
20,1,.006,-.01227,-.01155,-.00938,-.0166,0.0*
1,1,.006,-.00938,-.0166*
20,1,.006,-.00938,-.0166,-.00505,-.02021,0.0*
1,1,.006,-.00505,-.02021*
20,1,.006,-.00505,-.02021,.00073,-.02165,0.0*
1,1,.006,.00073,-.02165*
20,1,.006,.00073,-.02165,.00506,-.02093,0.0*
1,1,.006,.00506,-.02093*
20,1,.006,.00506,-.02093,.01011,-.01804,0.0*
1,1,.006,.01011,-.01804*
20,1,.006,.01011,-.01804,.013,-.01515,0.0*
1,1,.006,.013,-.01515*
%
%ADD11MACRO11*%
%ADD12C,.006*%
G75*
%LPD*%
G75*
G54D10*
X24604Y6019D03*
X15942D03*
X7280D03*
X24604Y9169D03*
X15942D03*
X7280D03*
X23160Y42526D03*
X18160D03*
X13160D03*
X8160D03*
X3160D03*
Y47526D03*
X8160D03*
X13160D03*
X18160D03*
X23160D03*
Y52526D03*
X18160D03*
X13160D03*
X8160D03*
X3160D03*
X11324Y66607D03*
X21324D03*
Y56607D03*
X11324D03*
X1324D03*
Y66607D03*
X21324Y86607D03*
X1324D03*
X11324D03*
Y96607D03*
X1324D03*
Y106607D03*
X11324D03*
X21324D03*
X23490Y34206D03*
X23230Y71036D03*
Y76036D03*
Y81036D03*
X18230Y71036D03*
X13230D03*
X8230D03*
X3230D03*
Y76036D03*
X8230D03*
X13230D03*
X18230D03*
Y81036D03*
X13230D03*
X8230D03*
X3230D03*
X116801Y24101D03*
X95843Y32975D03*
X98993D03*
X79645Y24496D03*
X69645D03*
X113266Y6019D03*
X103266D03*
X93266D03*
X83266D03*
X73266D03*
X63266D03*
X53266D03*
X43266D03*
X33266D03*
Y9169D03*
X47488Y32114D03*
X54180Y29465D03*
X87552Y29477D03*
X76039Y30149D03*
X45180Y20766D03*
X66257Y26719D03*
X63107D03*
X85927Y45873D03*
X116849Y46657D03*
X116962Y71293D03*
X85377Y53007D03*
X95039Y41905D03*
X41573Y63013D03*
X78761Y61606D03*
X39700Y59918D03*
X69866Y52989D03*
X77296Y36184D03*
X66414Y45897D03*
X76489Y39594D03*
X76513Y46993D03*
X61792Y40338D03*
X45089Y73081D03*
X48820D03*
X102143Y36125D03*
X98993D03*
X95843D03*
X95762Y58737D03*
X98912D03*
Y55587D03*
X95762D03*
X102062Y58737D03*
X95843Y83553D03*
X98993D03*
Y80403D03*
X95843D03*
X102143Y83553D03*
X92264Y66677D03*
X72264Y76677D03*
X82264Y66677D03*
Y76677D03*
X102956Y43115D03*
X86520Y34990D03*
X38393Y40396D03*
X28393D03*
X31324Y106607D03*
X41324D03*
X51324D03*
X61324D03*
X71324D03*
X81324D03*
X91324D03*
X111324Y96607D03*
X101324D03*
Y106607D03*
X111324D03*
X90411Y48512D03*
X73094Y52989D03*
X116116Y61606D03*
X116241Y39126D03*
X47850Y57316D03*
X52850D03*
X57850D03*
Y52316D03*
X52850D03*
X47850D03*
Y47316D03*
X52850D03*
X57850D03*
X116389Y86426D03*
X58190Y35412D03*
X87264Y76677D03*
X61555Y71510D03*
X32847Y46815D03*
X64666Y65397D03*
X153266Y26019D03*
Y16019D03*
Y6019D03*
X143266D03*
X133266D03*
X123266D03*
X150439Y32623D03*
X127008Y43604D03*
X122008D03*
X153266Y56019D03*
Y46019D03*
X131324Y86607D03*
X141324D03*
X151324D03*
Y96607D03*
X141324D03*
X131324D03*
X121324D03*
X151324Y106607D03*
X141324D03*
X131324D03*
X121324D03*
X122381Y38360D03*
X124941D03*
X127500D03*
X127480Y60840D03*
X124921D03*
X122361D03*
X142951Y38340D03*
X150439Y44057D03*
X142951Y68262D03*
X150439Y62545D03*
Y73979D03*
X127480Y85590D03*
X124921D03*
X122361D03*
X211848Y38161D03*
G54D11*
X20740Y99536D03*
X92472D03*
X82472D03*
X72472D03*
X62472D03*
X50740D03*
X40740D03*
X30740D03*
X211848Y13161D03*
G54D12*
G01X166898Y661D02*
Y125661D01*
X650498D01*
Y661D01*
X166898D01*
G01Y25661D02*
X650498D01*
G01X177903Y56911D02*
Y69411D01*
X183793D01*
G01X181623Y63369D02*
X177903D01*
G01X191388Y69411D02*
X195108D01*
G01X193248D02*
Y56911D01*
G01X191388D02*
X195108D01*
G01X206578Y63161D02*
X209678D01*
Y59411D01*
X208748Y58161D01*
X207663Y57328D01*
X206113Y56911D01*
X204563Y57328D01*
X203478Y58161D01*
X202548Y59411D01*
X201928Y60869D01*
X201618Y62536D01*
Y63994D01*
X201928Y65244D01*
X202548Y66703D01*
X203478Y67953D01*
X204408Y68786D01*
X205648Y69411D01*
X206733D01*
X207973Y68994D01*
X208903Y68161D01*
G01X214638Y69411D02*
Y60453D01*
X215258Y58577D01*
X216498Y57328D01*
X218048Y56911D01*
X219598Y57328D01*
X220838Y58577D01*
X221458Y60453D01*
Y69411D01*
G01X227348Y56911D02*
Y69411D01*
X231223D01*
X232463Y68786D01*
X233238Y67953D01*
X233548Y66286D01*
X233238Y64619D01*
X232308Y63578D01*
X231223Y62953D01*
X227348D01*
G01X231223D02*
X233548Y56911D01*
G01X245948D02*
X239748D01*
Y69411D01*
X245948D01*
G01X243468Y63369D02*
X239748D01*
G01X166898Y100661D02*
X650498D01*
G01X166898Y75661D02*
X650498D01*
G01X166898Y50661D02*
X650498D01*
G01X256798Y75661D02*
Y661D01*
G01X250288Y106911D02*
Y119411D01*
X253388D01*
X254628Y118786D01*
X255558Y117953D01*
X256333Y116703D01*
X256953Y115244D01*
X257108Y113161D01*
X256953Y111078D01*
X256333Y109619D01*
X255558Y108369D01*
X254628Y107536D01*
X253388Y106911D01*
X250288D01*
G01X262998D02*
Y119411D01*
X266873D01*
X268113Y118786D01*
X268888Y117953D01*
X269198Y116286D01*
X268888Y114619D01*
X267958Y113578D01*
X266873Y112953D01*
X262998D01*
G01X266873D02*
X269198Y106911D01*
G01X276638Y119411D02*
X280358D01*
G01X278498D02*
Y106911D01*
G01X276638D02*
X280358D01*
G01X287798Y119411D02*
Y106911D01*
X293998D01*
G01X300198Y119411D02*
Y106911D01*
X306398D01*
G01X331508Y118369D02*
X330578Y118994D01*
X329493Y119411D01*
X328253D01*
X326858Y118786D01*
X325773Y117744D01*
X324998Y116494D01*
X324378Y114411D01*
X324223Y112536D01*
X324533Y110661D01*
X324998Y109411D01*
X325928Y108161D01*
X327013Y107328D01*
X328098Y106911D01*
X329183D01*
X330268Y107328D01*
X331198Y107952D01*
X331973Y108786D01*
G01X337243Y106911D02*
Y119411D01*
G01X343753D02*
Y106911D01*
G01Y113161D02*
X337243D01*
G01X349023Y106911D02*
X352898Y119411D01*
X356773Y106911D01*
G01X355378Y111286D02*
X350418D01*
G01X362198Y106911D02*
Y119411D01*
X366073D01*
X367313Y118786D01*
X368088Y117953D01*
X368398Y116286D01*
X368088Y114619D01*
X367158Y113578D01*
X366073Y112953D01*
X362198D01*
G01X366073D02*
X368398Y106911D01*
G01X377698Y119411D02*
Y106911D01*
G01X374133Y119411D02*
X381263D01*
G01X390098Y106494D02*
X389788Y106703D01*
Y107119D01*
X390098Y107328D01*
X390408Y107119D01*
Y106703D01*
X390098Y106494D01*
G01Y112119D02*
X389788Y112328D01*
Y112744D01*
X390098Y112953D01*
X390408Y112744D01*
Y112328D01*
X390098Y112119D01*
G01X414898Y119411D02*
Y106911D01*
G01X411333Y119411D02*
X418463D01*
G01X427298Y106911D02*
X426058Y107119D01*
X424973Y107952D01*
X424043Y109203D01*
X423423Y110661D01*
X423113Y112328D01*
Y113994D01*
X423423Y115661D01*
X424043Y117119D01*
X424973Y118369D01*
X426058Y119203D01*
X427298Y119411D01*
X428538Y119203D01*
X429623Y118369D01*
X430553Y117119D01*
X431173Y115661D01*
X431483Y113994D01*
Y112328D01*
X431173Y110661D01*
X430553Y109203D01*
X429623Y107952D01*
X428538Y107119D01*
X427298Y106911D01*
G01X436598D02*
Y119411D01*
X440318D01*
X441558Y118786D01*
X442488Y117328D01*
X442798Y115661D01*
X442488Y113994D01*
X441713Y112744D01*
X440318Y112119D01*
X436598D01*
G01X464498Y119411D02*
Y106911D01*
G01X462328Y115244D02*
X466668D01*
G01X476898Y106911D02*
X475968Y107119D01*
X475038Y107952D01*
X474418Y109411D01*
X474108Y111078D01*
X474418Y112744D01*
X475038Y114203D01*
X475968Y115036D01*
X476898Y115244D01*
X477828Y115036D01*
X478758Y114203D01*
X479378Y112744D01*
X479533Y111078D01*
X479378Y109411D01*
X478758Y107952D01*
X477828Y107119D01*
X476898Y106911D01*
G01X502938Y113578D02*
X503558Y114203D01*
X504023Y115244D01*
X504333Y116703D01*
X504023Y117953D01*
X503403Y118786D01*
X502318Y119411D01*
X498133D01*
Y106911D01*
X503248D01*
X504333Y107744D01*
X504953Y108994D01*
X505263Y110453D01*
X504953Y111911D01*
X504023Y113161D01*
X502938Y113578D01*
X498133D01*
G01X514098Y106911D02*
X512858Y107119D01*
X511773Y107952D01*
X510843Y109203D01*
X510223Y110661D01*
X509913Y112328D01*
Y113994D01*
X510223Y115661D01*
X510843Y117119D01*
X511773Y118369D01*
X512858Y119203D01*
X514098Y119411D01*
X515338Y119203D01*
X516423Y118369D01*
X517353Y117119D01*
X517973Y115661D01*
X518283Y113994D01*
Y112328D01*
X517973Y110661D01*
X517353Y109203D01*
X516423Y107952D01*
X515338Y107119D01*
X514098Y106911D01*
G01X526498Y119411D02*
Y106911D01*
G01X522933Y119411D02*
X530063D01*
G01X538898D02*
Y106911D01*
G01X535333Y119411D02*
X542463D01*
G01X551298Y106911D02*
X550058Y107119D01*
X548973Y107952D01*
X548043Y109203D01*
X547423Y110661D01*
X547113Y112328D01*
Y113994D01*
X547423Y115661D01*
X548043Y117119D01*
X548973Y118369D01*
X550058Y119203D01*
X551298Y119411D01*
X552538Y119203D01*
X553623Y118369D01*
X554553Y117119D01*
X555173Y115661D01*
X555483Y113994D01*
Y112328D01*
X555173Y110661D01*
X554553Y109203D01*
X553623Y107952D01*
X552538Y107119D01*
X551298Y106911D01*
G01X559668D02*
Y119411D01*
X563698Y108994D01*
X567728Y119411D01*
Y106911D01*
G01X280823Y81911D02*
X284698Y94411D01*
X288573Y81911D01*
G01X287178Y86286D02*
X282218D01*
G01X293998Y94411D02*
Y81911D01*
X300198D01*
G01X306398Y94411D02*
Y81911D01*
X312598D01*
G01X330888Y94411D02*
Y85453D01*
X331508Y83577D01*
X332748Y82328D01*
X334298Y81911D01*
X335848Y82328D01*
X337088Y83577D01*
X337708Y85453D01*
Y94411D01*
G01X343133Y81911D02*
Y94411D01*
X350263Y81911D01*
Y94411D01*
G01X357238D02*
X360958D01*
G01X359098D02*
Y81911D01*
G01X357238D02*
X360958D01*
G01X371498Y94411D02*
Y81911D01*
G01X367933Y94411D02*
X375063D01*
G01X380643Y83577D02*
X381883Y82536D01*
X383278Y81911D01*
X384518D01*
X385758Y82536D01*
X386688Y83577D01*
X387153Y85036D01*
X386843Y86494D01*
X386068Y87744D01*
X384673Y88578D01*
X382813Y88994D01*
X381728Y89828D01*
X381263Y91286D01*
X381573Y92744D01*
X382348Y93786D01*
X383433Y94411D01*
X384518D01*
X385603Y93994D01*
X386533Y92953D01*
G01X404823Y81911D02*
X408698Y94411D01*
X412573Y81911D01*
G01X411178Y86286D02*
X406218D01*
G01X417998Y81911D02*
Y94411D01*
X421873D01*
X423113Y93786D01*
X423888Y92953D01*
X424198Y91286D01*
X423888Y89619D01*
X422958Y88578D01*
X421873Y87953D01*
X417998D01*
G01X421873D02*
X424198Y81911D01*
G01X436598D02*
X430398D01*
Y94411D01*
X436598D01*
G01X434118Y88369D02*
X430398D01*
G01X456438Y94411D02*
X460158D01*
G01X458298D02*
Y81911D01*
G01X456438D02*
X460158D01*
G01X467133D02*
Y94411D01*
X474263Y81911D01*
Y94411D01*
G01X491468Y81911D02*
Y94411D01*
X495498Y83994D01*
X499528Y94411D01*
Y81911D01*
G01X506038Y94411D02*
X509758D01*
G01X507898D02*
Y81911D01*
G01X506038D02*
X509758D01*
G01X517198Y94411D02*
Y81911D01*
X523398D01*
G01X529443Y83577D02*
X530683Y82536D01*
X532078Y81911D01*
X533318D01*
X534558Y82536D01*
X535488Y83577D01*
X535953Y85036D01*
X535643Y86494D01*
X534868Y87744D01*
X533473Y88578D01*
X531613Y88994D01*
X530528Y89828D01*
X530063Y91286D01*
X530373Y92744D01*
X531148Y93786D01*
X532233Y94411D01*
X533318D01*
X534403Y93994D01*
X535333Y92953D01*
G01X332748Y31911D02*
Y44411D01*
X330888Y41911D01*
G01Y31911D02*
X334608D01*
G01X345148Y44411D02*
X343908Y43994D01*
X342978Y42953D01*
X342358Y41703D01*
X341893Y40036D01*
X341738Y38161D01*
X341893Y36286D01*
X342358Y34619D01*
X342978Y33369D01*
X343908Y32328D01*
X345148Y31911D01*
X346388Y32328D01*
X347318Y33369D01*
X347938Y34619D01*
X348403Y36286D01*
X348558Y38161D01*
X348403Y40036D01*
X347938Y41703D01*
X347318Y42953D01*
X346388Y43994D01*
X345148Y44411D01*
G01X357548Y31494D02*
X357238Y31703D01*
Y32119D01*
X357548Y32328D01*
X357858Y32119D01*
Y31703D01*
X357548Y31494D01*
G01X369948Y44411D02*
X368708Y43994D01*
X367778Y42953D01*
X367158Y41703D01*
X366693Y40036D01*
X366538Y38161D01*
X366693Y36286D01*
X367158Y34619D01*
X367778Y33369D01*
X368708Y32328D01*
X369948Y31911D01*
X371188Y32328D01*
X372118Y33369D01*
X372738Y34619D01*
X373203Y36286D01*
X373358Y38161D01*
X373203Y40036D01*
X372738Y41703D01*
X372118Y42953D01*
X371188Y43994D01*
X369948Y44411D01*
G01X323138Y9411D02*
X324068Y7952D01*
X325308Y7119D01*
X326703Y6911D01*
X327943Y7119D01*
X329183Y8161D01*
X329958Y9411D01*
X330113Y10661D01*
X329803Y12119D01*
X328718Y13161D01*
X327633Y13578D01*
X326238D01*
G01X327633D02*
X328563Y14203D01*
X329338Y15244D01*
X329648Y16494D01*
X329338Y17744D01*
X328563Y18786D01*
X327168Y19411D01*
X325773Y19203D01*
X324378Y18369D01*
G01X336313Y8369D02*
X337398Y7328D01*
X338638Y6911D01*
X339878Y7328D01*
X340963Y8577D01*
X341738Y10453D01*
X342048Y12328D01*
Y14619D01*
X341738Y16494D01*
X340963Y18161D01*
X340033Y18994D01*
X338948Y19411D01*
X337708Y18994D01*
X336778Y18161D01*
X336158Y16911D01*
X335848Y15244D01*
X336158Y13786D01*
X336933Y12328D01*
X337863Y11494D01*
X338948Y11286D01*
X340188Y11702D01*
X341118Y12744D01*
X342048Y14619D01*
G01X351348Y6494D02*
X351038Y6703D01*
Y7119D01*
X351348Y7328D01*
X351658Y7119D01*
Y6703D01*
X351348Y6494D01*
G01X360338Y9411D02*
X361268Y7952D01*
X362508Y7119D01*
X363903Y6911D01*
X365143Y7119D01*
X366383Y8161D01*
X367158Y9411D01*
X367313Y10661D01*
X367003Y12119D01*
X365918Y13161D01*
X364833Y13578D01*
X363438D01*
G01X364833D02*
X365763Y14203D01*
X366538Y15244D01*
X366848Y16494D01*
X366538Y17744D01*
X365763Y18786D01*
X364368Y19411D01*
X362973Y19203D01*
X361578Y18369D01*
G01X375838Y6911D02*
X376148Y9619D01*
X376613Y11911D01*
X377233Y13994D01*
X378008Y16286D01*
X379248Y19411D01*
X373048D01*
G01X329493Y58577D02*
X330733Y57536D01*
X332128Y56911D01*
X333368D01*
X334608Y57536D01*
X335538Y58577D01*
X336003Y60036D01*
X335693Y61494D01*
X334918Y62744D01*
X333523Y63578D01*
X331663Y63994D01*
X330578Y64828D01*
X330113Y66286D01*
X330423Y67744D01*
X331198Y68786D01*
X332283Y69411D01*
X333368D01*
X334453Y68994D01*
X335383Y67953D01*
G01X343288Y69411D02*
X347008D01*
G01X345148D02*
Y56911D01*
G01X343288D02*
X347008D01*
G01X354603Y69411D02*
X360493D01*
X354603Y56911D01*
X360493D01*
G01X373048D02*
X366848D01*
Y69411D01*
X373048D01*
G01X370568Y63369D02*
X366848D01*
G01X475348Y31911D02*
Y44411D01*
X479068D01*
X480308Y43786D01*
X481238Y42328D01*
X481548Y40661D01*
X481238Y38994D01*
X480463Y37744D01*
X479068Y37119D01*
X475348D01*
G01X487748Y44411D02*
Y31911D01*
X493948D01*
G01X499373D02*
X503248Y44411D01*
X507123Y31911D01*
G01X505728Y36286D02*
X500768D01*
G01X515648Y44411D02*
Y31911D01*
G01X512083Y44411D02*
X519213D01*
G01X531148Y31911D02*
X524948D01*
Y44411D01*
X531148D01*
G01X528668Y38369D02*
X524948D01*
G01X537038Y31911D02*
Y44411D01*
X540138D01*
X541378Y43786D01*
X542308Y42953D01*
X543083Y41703D01*
X543703Y40244D01*
X543858Y38161D01*
X543703Y36078D01*
X543083Y34619D01*
X542308Y33369D01*
X541378Y32536D01*
X540138Y31911D01*
X537038D01*
G01X475348Y6911D02*
Y19411D01*
X479068D01*
X480308Y18786D01*
X481238Y17328D01*
X481548Y15661D01*
X481238Y13994D01*
X480463Y12744D01*
X479068Y12119D01*
X475348D01*
G01X487748Y19411D02*
Y6911D01*
X493948D01*
G01X499373D02*
X503248Y19411D01*
X507123Y6911D01*
G01X505728Y11286D02*
X500768D01*
G01X515648Y19411D02*
Y6911D01*
G01X512083Y19411D02*
X519213D01*
G01X531148Y6911D02*
X524948D01*
Y19411D01*
X531148D01*
G01X528668Y13369D02*
X524948D01*
G01X537038Y6911D02*
Y19411D01*
X540138D01*
X541378Y18786D01*
X542308Y17953D01*
X543083Y16703D01*
X543703Y15244D01*
X543858Y13161D01*
X543703Y11078D01*
X543083Y9619D01*
X542308Y8369D01*
X541378Y7536D01*
X540138Y6911D01*
X537038D01*
G01X445898Y75661D02*
Y661D01*
G01X475348Y56911D02*
Y69411D01*
X479068D01*
X480308Y68786D01*
X481238Y67328D01*
X481548Y65661D01*
X481238Y63994D01*
X480463Y62744D01*
X479068Y62119D01*
X475348D01*
G01X487748Y69411D02*
Y56911D01*
X493948D01*
G01X499373D02*
X503248Y69411D01*
X507123Y56911D01*
G01X505728Y61286D02*
X500768D01*
G01X515648Y69411D02*
Y56911D01*
G01X512083Y69411D02*
X519213D01*
G01X531148Y56911D02*
X524948D01*
Y69411D01*
X531148D01*
G01X528668Y63369D02*
X524948D01*
G01X537038Y56911D02*
Y69411D01*
X540138D01*
X541378Y68786D01*
X542308Y67953D01*
X543083Y66703D01*
X543703Y65244D01*
X543858Y63161D01*
X543703Y61078D01*
X543083Y59619D01*
X542308Y58369D01*
X541378Y57536D01*
X540138Y56911D01*
X537038D01*
G01X572998Y75661D02*
Y661D01*
G01X599348Y31911D02*
Y44411D01*
X597488Y41911D01*
G01Y31911D02*
X601208D01*
G01X611438D02*
X611748Y34619D01*
X612213Y36911D01*
X612833Y38994D01*
X613608Y41286D01*
X614848Y44411D01*
X608648D01*
G01X621203Y37119D02*
X622288Y38578D01*
X623218Y39411D01*
X624458Y39828D01*
X625543Y39411D01*
X626318Y38578D01*
X626938Y37328D01*
X627093Y35869D01*
X626938Y34619D01*
X626318Y33369D01*
X625388Y32328D01*
X624303Y31911D01*
X623063Y32328D01*
X621978Y33577D01*
X621358Y35453D01*
X621203Y37536D01*
X621513Y40244D01*
X621978Y41703D01*
X622753Y43161D01*
X623838Y44203D01*
X624923Y44411D01*
X626008Y43994D01*
X626783Y42953D01*
G01X611748Y6911D02*
X612833Y7119D01*
X614073Y7744D01*
X614848Y8786D01*
X615158Y10244D01*
X614848Y11702D01*
X613918Y12953D01*
X612523Y13578D01*
X610973D01*
X610043Y13994D01*
X609268Y15036D01*
X608958Y16494D01*
X609423Y17953D01*
X610508Y18994D01*
X611748Y19411D01*
X612988Y18994D01*
X614073Y17953D01*
X614538Y16494D01*
X614228Y15036D01*
X613453Y13994D01*
X612523Y13578D01*
X610973D01*
X609578Y12953D01*
X608648Y11702D01*
X608338Y10244D01*
X608648Y8786D01*
X609423Y7744D01*
X610663Y7119D01*
X611748Y6911D01*
G01X599348Y56911D02*
X598108Y57119D01*
X597023Y57952D01*
X596093Y59203D01*
X595473Y60661D01*
X595163Y62328D01*
Y63994D01*
X595473Y65661D01*
X596093Y67119D01*
X597023Y68369D01*
X598108Y69203D01*
X599348Y69411D01*
X600588Y69203D01*
X601673Y68369D01*
X602603Y67119D01*
X603223Y65661D01*
X603533Y63994D01*
Y62328D01*
X603223Y60661D01*
X602603Y59203D01*
X601673Y57952D01*
X600588Y57119D01*
X599348Y56911D01*
G01X600588Y60244D02*
X602448Y56911D01*
G01X611748Y69411D02*
Y56911D01*
G01X608183Y69411D02*
X615313D01*
G01X624148Y56911D02*
Y62536D01*
X621048Y69411D01*
G01X627248D02*
X624148Y62536D01*
G01X0Y26D02*
X155000D01*
G03X157500Y2526I0J2500D01*
G01Y107526D01*
G03X155000Y110026I-2500J0D01*
G01X0D01*
G03X-2500Y107526I0J-2500D01*
G01Y2526D01*
G03X0Y26I2500J0D01*
M02*
