G04 ================== begin FILE IDENTIFICATION RECORD ==================*
G04 Layout Name:  C:/Users/abcd/Documents/GitHub/sophum_esc_v3/PCB/sophum_esc_v3.brd*
G04 Film Name:    SOLDTOP*
G04 File Format:  Gerber RS274X*
G04 File Origin:  Cadence Allegro 16.6-2015-S066*
G04 Origin Date:  Wed May 06 23:08:32 2020*
G04 *
G04 Layer:  VIA CLASS/SOLDERMASK_TOP*
G04 Layer:  PIN/SOLDERMASK_TOP*
G04 Layer:  PACKAGE GEOMETRY/SOLDERMASK_TOP*
G04 Layer:  BOARD GEOMETRY/SOLDERMASK_TOP*
G04 Layer:  BOARD GEOMETRY/OUTLINE*
G04 *
G04 Offset:    (0.00 0.00)*
G04 Mirror:    No*
G04 Mode:      Positive*
G04 Rotation:  0*
G04 FullContactRelief:  No*
G04 UndefLineWidth:     6.00*
G04 ================== end FILE IDENTIFICATION RECORD ====================*
%FSLAX55Y55*MOIN*%
%IR0*IPPOS*OFA0.00000B0.00000*MIA0B0*SFA1.00000B1.00000*%
%ADD12R,.02402X.02402*%
%ADD23R,.12205X.08661*%
%ADD20R,.03543X.03543*%
%ADD21C,.06693*%
%ADD11C,.08268*%
%ADD22R,.06693X.06693*%
%ADD26R,.01772X.02362*%
%ADD17R,.02362X.01772*%
%ADD18R,.02362X.02953*%
%AMMACRO27*
4,1,28,-.03248,.05216,
-.03248,.06713,
-.00768,.06713,
-.00768,.05216,
.03701,.05216,
.03701,.0502,
.04882,.0502,
.04882,.02658,
.03701,.02658,
.03701,.02461,
.04882,.02461,
.04882,.00098,
.03701,.00098,
.03701,-.00098,
.04882,-.00098,
.04882,-.02461,
.03701,-.02461,
.03701,-.02658,
.04882,-.02658,
.04882,-.0502,
.03701,-.0502,
.03701,-.05216,
-.00768,-.05216,
-.00768,-.06713,
-.03248,-.06713,
-.03248,-.05216,
-.04882,-.05216,
-.04882,.05216,
-.03248,.05216,
0.0*
%
%ADD27MACRO27*%
%AMMACRO25*
4,1,28,.05216,.03248,
.06713,.03248,
.06713,.00768,
.05216,.00768,
.05216,-.03701,
.0502,-.03701,
.0502,-.04882,
.02658,-.04882,
.02658,-.03701,
.02461,-.03701,
.02461,-.04882,
.00098,-.04882,
.00098,-.03701,
-.00098,-.03701,
-.00098,-.04882,
-.02461,-.04882,
-.02461,-.03701,
-.02658,-.03701,
-.02658,-.04882,
-.0502,-.04882,
-.0502,-.03701,
-.05216,-.03701,
-.05216,.00768,
-.06713,.00768,
-.06713,.03248,
-.05216,.03248,
-.05216,.04882,
.05216,.04882,
.05216,.03248,
0.0*
%
%ADD25MACRO25*%
%ADD10R,.07402X.05394*%
%ADD16R,.04724X.02756*%
%ADD15R,.01575X.02756*%
%ADD14R,.02756X.01575*%
%ADD24R,.06693X.03543*%
%ADD13R,.13976X.13976*%
%ADD19R,.05394X.04882*%
%ADD28C,.006*%
G75*
%LPD*%
G75*
G36*
G01X1287Y69658D02*
X25401D01*
G03X26401Y70658I0J1000D01*
G01Y81566D01*
G03X25401Y82566I-1000J0D01*
G01X1287D01*
G03X287Y81566I0J-1000D01*
G01Y70658D01*
G03X1287Y69658I1000J0D01*
G37*
G36*
G01X1225Y41123D02*
X25339D01*
G03X26339Y42123I0J1000D01*
G01Y53031D01*
G03X25339Y54031I-1000J0D01*
G01X1225D01*
G03X225Y53031I0J-1000D01*
G01Y42123D01*
G03X1225Y41123I1000J0D01*
G37*
G54D10*
X7280Y13252D03*
Y25220D03*
X24604Y13252D03*
X33266D03*
X15942D03*
X24604Y25220D03*
X33266D03*
X15942D03*
G54D11*
X5840Y102441D03*
X140947Y26280D03*
X146211Y102662D03*
G54D20*
X26797Y34206D03*
X32703D03*
G54D21*
X92472Y99536D03*
X82472D03*
X72472D03*
X50740D03*
X40740D03*
X30740D03*
G54D12*
X57120Y14802D03*
X61555Y68625D03*
Y65397D03*
X55360Y35412D03*
Y38640D03*
X47488Y35412D03*
Y38640D03*
X57120Y18030D03*
X69866Y41960D03*
X73094D03*
X69866Y38023D03*
X73094D03*
X69866Y34086D03*
X73094D03*
X51424Y38640D03*
Y35412D03*
X99210Y24152D03*
Y27380D03*
X99190Y46622D03*
Y49850D03*
Y71372D03*
Y74600D03*
X103129Y39126D03*
X103069Y61606D03*
X103096Y86426D03*
X37556Y34206D03*
X40784D03*
X73094Y30149D03*
X69866D03*
X73094Y45897D03*
X69866D03*
X73094Y49834D03*
X69866D03*
X80016Y41936D03*
X83244D03*
X80016Y45873D03*
X83244D03*
X80016Y49810D03*
X83244D03*
X39034Y46815D03*
X35806D03*
X113444Y39126D03*
X110216D03*
X113384Y61606D03*
X110156D03*
X113411Y86426D03*
X110183D03*
X106357Y39126D03*
X106297Y61606D03*
X106324Y86426D03*
G54D13*
X52860Y52236D03*
G54D22*
X62472Y99536D03*
X20740D03*
G54D14*
X43608Y45346D03*
Y47315D03*
Y49283D03*
Y51252D03*
Y53220D03*
Y55189D03*
Y57157D03*
Y59126D03*
X62112D03*
Y57157D03*
Y55189D03*
Y53220D03*
Y51252D03*
Y49283D03*
Y47315D03*
Y45346D03*
G54D23*
X150439Y68262D03*
Y38340D03*
G54D24*
X139021Y58222D03*
Y53301D03*
Y48380D03*
G54D15*
X45970Y61488D03*
X47939D03*
X49907D03*
X51876D03*
X53844D03*
X55813D03*
X57781D03*
X59750D03*
Y42984D03*
X57781D03*
X55813D03*
X53844D03*
X51876D03*
X49907D03*
X47939D03*
X45970D03*
G54D16*
X51578Y24506D03*
Y17026D03*
X41342D03*
Y20766D03*
Y24506D03*
G54D25*
X123641Y74908D03*
Y50158D03*
X123661Y27678D03*
G54D17*
X103118Y73077D03*
Y75636D03*
Y78196D03*
Y80755D03*
Y48327D03*
Y50886D03*
Y53446D03*
Y56005D03*
X103138Y25847D03*
Y28406D03*
Y30966D03*
Y33525D03*
G54D26*
X119802Y82428D03*
X122361D03*
X124921D03*
X127480D03*
X119802Y57678D03*
X122361D03*
X124921D03*
X127480D03*
X119822Y35198D03*
X122381D03*
X124941D03*
X127500D03*
G54D27*
X110638Y76916D03*
Y52166D03*
X110658Y29686D03*
G54D18*
X92970Y70575D03*
X95529Y76677D03*
X90411D03*
X93010Y23375D03*
X95569Y29477D03*
X90451D03*
X92970Y45665D03*
X95529Y51767D03*
X90411D03*
G54D28*
G01X0Y26D02*
X155000D01*
G03X157500Y2526I0J2500D01*
G01Y107526D01*
G03X155000Y110026I-2500J0D01*
G01X0D01*
G03X-2500Y107526I0J-2500D01*
G01Y2526D01*
G03X0Y26I2500J0D01*
G54D19*
X58301Y29565D03*
Y22951D03*
M02*
