M48
INCH,TZ
T01C.01
T02C.03937
;LEADER: 12 
;HEADER: 
;CODE  : ASCII 
;FILE  : sophum_esc_v3-1-2.drl for board #Taaaaaj25988.tmp ... layers TOP and BOTTOM
;T01 Holesize 1. = 10.000000 Tolerance = +0.000000/-0.000000 PLATED MILS Quantity = 176
;T02 Holesize 2. = 39.370000 Tolerance = +0.000000/-0.000000 PLATED MILS Quantity = 8
%
G90
T01
X7280Y6019
X7280Y9169
X15942Y6019
X15942Y9169
X24604Y6019
X24604Y9169
X33266Y6019
X33266Y9169
X43266Y6019
R11X10000
X153266Y16019
X153266Y26019
X150439Y32623
X142951Y38340
X127500Y38360
X124941Y38360
X122381Y38360
X116801Y24101
X116241Y39126
X102143Y36125
X98993Y36125
X98993Y32975
X95843Y36125
X95843Y32975
X87552Y29477
X86520Y34990
X79645Y24496
X77296Y36184
X76489Y39594
X76039Y30149
X69645Y24496
X66257Y26719
X63107Y26719
X58190Y35412
X54180Y29465
X47488Y32114
X45180Y20766
X23490Y34206
X1324Y56607
X3160Y42526
X3160Y47526
X3160Y52526
X8160Y42526
R02Y5000
X11324Y56607
X13160Y42526
X13160Y47526
X13160Y52526
X18160Y42526
R02Y5000
X21324Y56607
X23160Y42526
X23160Y47526
X23160Y52526
X28393Y40396
X32847Y46815
X38393Y40396
X39700Y59918
X47850Y47316
R02Y5000
X52850Y47316
R02Y5000
X57850Y47316
R02Y5000
X61792Y40338
X66414Y45897
X69866Y52989
X73094Y52989
X76513Y46993
X85377Y53007
X85927Y45873
X90411Y48512
X95039Y41905
X95762Y55587
X95762Y58737
X98912Y55587
X98912Y58737
X102062Y58737
X102956Y43115
X116849Y46657
X122008Y43604
X127008Y43604
X150439Y44057
X153266Y46019
X153266Y56019
X150439Y73979
X150439Y62545
X142951Y68262
X127480Y60840
X124921Y60840
X122361Y60840
X116962Y71293
X116116Y61606
X92264Y66677
X87264Y76677
X82264Y76677
X82264Y66677
X78761Y61606
X72264Y76677
X64666Y65397
X61555Y71510
X48820Y73081
X45089Y73081
X41573Y63013
X23230Y76036
X23230Y71036
X21324Y66607
X18230Y76036
X18230Y71036
X13230Y76036
X13230Y71036
X11324Y66607
X8230Y76036
X8230Y71036
X3230Y76036
X3230Y71036
X1324Y66607
X1324Y86607
X1324Y96607
X3230Y81036
X8230Y81036
X11324Y86607
X11324Y96607
X13230Y81036
X18230Y81036
X21324Y86607
X23230Y81036
X95843Y80403
X95843Y83553
X98993Y80403
X98993Y83553
X101324Y96607
X102143Y83553
X111324Y96607
X116389Y86426
X121324Y96607
X122361Y85590
X124921Y85590
X127480Y85590
X131324Y86607
X131324Y96607
X141324Y86607
X141324Y96607
X151324Y86607
X151324Y96607
X151324Y106607
X141324Y106607
R14X-10000
T02
X20740Y99536
R03X10000
X62472Y99536
R03X10000
M30
